Coordinates
version=1
nRows=11
nColumns=42
inDegrees=yes

Units are S.I. units (second, meters, Newtons, ...)
If the header above contains a line with 'inDegrees', this indicates whether rotational values are in degrees (yes) or radians (no).

endheader
time	pelvis_tilt	pelvis_list	pelvis_rotation	pelvis_tx	pelvis_ty	pelvis_tz	hip_flexion_r	hip_adduction_r	hip_rotation_r	knee_angle_r	knee_adduction_r	knee_angle_r_beta	ankle_angle_r	subtalar_angle_r	mtp_angle_r	hip_flexion_l	hip_adduction_l	hip_rotation_l	knee_angle_l	knee_adduction_l	knee_angle_l_beta	ankle_angle_l	subtalar_angle_l	mtp_angle_l	lumbar_extension	lumbar_bending	lumbar_rotation	arm_flex_r	arm_add_r	arm_rot_r	elbow_flex_r	pro_sup_r	wrist_flex_r	wrist_dev_r	arm_flex_l	arm_add_l	arm_rot_l	elbow_flex_l	pro_sup_l	wrist_flex_l	wrist_dev_l
      2.19000000	     -2.35305268	      1.95372009	     -3.15155279	      0.07837138	      0.97440736	      0.29222202	      8.56924865	     -9.46913179	      1.11546673	     54.56757416	      4.96017909	      0.95238383	      3.20963145	      6.97654609	     -7.50779324	     12.87212032	      1.75087846	    -17.18836425	     11.03583680	     -1.32570607	      0.19261169	      4.69620447	     23.45891406	     -7.50779324	     -7.03998934	     -4.28057773	     -0.97054219	     -1.29013686	    -14.16650409	     12.58312896	     32.85955893	     90.00000001	      0.00000000	      0.00000000	     -2.70142810	    -15.91425938	     16.88990838	     29.20900848	     90.00000001	      0.00000000	      0.00000000
      2.20000000	     -2.09165818	      1.71916735	     -2.80822163	      0.08773071	      0.97548691	      0.29065810	      9.72394964	     -9.26833078	      1.02890566	     55.65886451	      5.08262581	      0.97143044	      3.80167162	      7.01699357	     -7.50770458	     11.91773309	      1.63447862	    -16.98499119	     10.96640237	     -1.17834626	      0.19139983	      5.09360422	     23.66278082	     -7.50770458	     -7.37314317	     -3.91306046	     -1.49369408	     -1.67286923	    -14.07558911	     12.58032516	     32.69360888	     90.00000001	      0.00000000	      0.00000000	     -1.83867877	    -15.97757274	     17.05785644	     29.37319129	     90.00000001	      0.00000000	      0.00000000
      2.21000000	     -1.97082088	      1.69477141	     -2.37253719	      0.09733396	      0.97618625	      0.28879747	     11.01426581	     -9.37500889	      0.27941555	     56.56786279	      4.79975139	      0.98729546	      4.99915884	      8.25943639	     -7.50740641	     11.05439126	      1.87831132	    -16.59861103	     10.70981123	     -1.23127457	      0.18692147	      5.74329903	     24.40212195	     -7.50740641	     -7.46380459	     -3.72285366	     -1.96973214	     -2.22591889	    -13.88687110	     12.20359876	     32.50012737	     90.00000001	      0.00000000	      0.00000000	     -0.82634198	    -16.30576633	     18.68363446	     29.37597624	     90.00000001	      0.00000000	      0.00000000
      2.22000000	     -1.75252533	      1.56988648	     -2.02191205	      0.10682632	      0.97700616	      0.28723633	     12.17444226	     -9.29372595	     -0.25834040	     57.17101661	      4.62787383	      0.99782248	      5.84692902	      9.05692980	     -7.50698428	     10.14254062	      1.91353610	    -16.35194580	     10.60593569	     -1.18223273	      0.18510850	      6.25863122	     24.69353000	     -7.50698428	     -7.68566602	     -3.45082598	     -2.36120960	     -2.73521157	    -13.69555932	     11.76412714	     32.29807110	     90.00000001	      0.00000000	      0.00000000	      0.08864338	    -16.65718616	     20.10318931	     29.75858823	     90.00000001	      0.00000000	      0.00000000
      2.23000000	     -1.57078868	      1.38668588	     -1.70045630	      0.11609176	      0.97778336	      0.28557958	     13.34597104	     -9.17349799	     -0.39475253	     57.51416141	      4.89116053	      1.00381148	      6.27922472	      9.11678160	     -7.50691061	      9.34300858	      1.88324481	    -16.17563719	     10.61543281	     -1.16840285	      0.18527425	      6.59178830	     24.74963106	     -7.50691061	     -7.89343497	     -3.08588329	     -2.75799313	     -3.19730725	    -13.63001307	     11.74997186	     32.13117231	     90.00000001	      0.00000000	      0.00000000	      0.99759590	    -16.68147199	     20.19216365	     29.98356157	     90.00000001	      0.00000000	      0.00000000
      2.24000000	     -1.48098029	      1.22223670	     -1.29430057	      0.12551060	      0.97839158	      0.28400879	     14.48536968	     -9.00593481	     -0.66872920	     57.48878270	      5.04530568	      1.00336854	      7.19751148	      9.35120036	     -7.50680450	      8.52376906	      1.94208756	    -15.59601211	     10.37167475	     -1.22666164	      0.18101987	      7.32615192	     25.16888923	     -7.50680450	     -7.94521723	     -2.75486781	     -3.15660879	     -3.73399695	    -13.47700018	     11.58129259	     31.93253463	     90.00000001	      0.00000000	      0.00000000	      2.02519405	    -16.73825649	     20.73892135	     29.92825241	     90.00000001	      0.00000000	      0.00000000
      2.25000000	     -1.34028461	      1.16246344	     -1.01592601	      0.13461647	      0.97902717	      0.28255230	     15.61755594	     -8.92664085	     -0.81469829	     57.24828122	      5.22334952	      0.99917100	      7.30320623	      9.38450416	     -7.50675333	      7.85807428	      1.99736734	    -15.69109892	     10.51976900	     -1.23915498	      0.18360461	      7.41804329	     24.99821076	     -7.50675333	     -8.11409166	     -2.54584212	     -3.52854834	     -4.20185935	    -13.39266275	     11.58242187	     31.83439154	     90.00000001	      0.00000000	      0.00000000	      2.88448669	    -16.84222746	     20.71511827	     30.29299264	     90.00000001	      0.00000000	      0.00000000
      2.26000000	     -1.23698303	      0.92351948	     -0.51989023	      0.14422533	      0.97946328	      0.28075170	     16.56499311	     -8.77940806	     -1.36161174	     56.67190785	      5.44142636	      0.98911139	      8.37646475	      9.59627158	     -7.50665046	      6.94832316	      2.04908598	    -14.87225920	     10.11126149	     -1.40589108	      0.17647480	      8.33533447	     25.63716799	     -7.50665046	     -8.13551742	     -2.09221554	     -3.86368521	     -4.82880440	    -13.24128206	     11.19140937	     31.59250491	     90.00000001	      0.00000000	      0.00000000	      3.95193886	    -16.90096404	     21.62087477	     30.25662648	     90.00000001	      0.00000000	      0.00000000
      2.27000000	     -1.11684734	      0.91858677	     -0.27078210	      0.15301236	      0.97977750	      0.27940651	     17.71779734	     -8.76101521	     -1.59786117	     56.12055742	      5.59009183	      0.97948851	      8.46690856	      9.59220315	     -7.50659937	      6.31986408	      2.12483796	    -14.97603235	     10.25062987	     -1.39620734	      0.17890724	      8.42932184	     25.46555707	     -7.50659937	     -8.30193586	     -1.94728146	     -4.14702696	     -5.26514174	    -13.13930282	     11.17230024	     31.50939444	     90.00000001	      0.00000000	      0.00000000	      4.87538837	    -17.00327430	     21.61967101	     30.67993968	     90.00000001	      0.00000000	      0.00000000
      2.28000000	     -0.55745515	      0.56127522	      0.38303799	      0.16320940	      0.98067790	      0.27789961	     17.82366397	     -8.41468604	     -2.86393608	     54.74572937	      5.32719744	      0.95549323	      9.24375492	     10.05299995	     -7.50612671	      4.84837897	      1.93873135	    -14.10975524	      9.80867717	     -1.43673609	      0.17119371	      9.16236748	     26.18487835	     -7.50612671	     -8.78121617	     -1.38736815	     -4.43195774	     -5.97469935	    -12.56974408	      9.05132860	     31.14530479	     90.00000001	      0.00000000	      0.00000000	      5.94794248	    -17.72999656	     25.18060081	     31.38380588	     90.00000001	      0.00000000	      0.00000000
      2.29000000	     -0.47046726	      0.50667965	      0.70450724	      0.17251079	      0.98074462	      0.27640333	     18.70654252	     -8.34683384	     -3.24162846	     53.51283165	      5.48382394	      0.93397510	      9.60369841	      9.77422013	     -7.50601226	      4.06238679	      2.03202472	    -13.80841880	      9.61067829	     -1.49384046	      0.16773798	      9.66224201	     26.43050946	     -7.50601226	     -8.82228171	     -1.16231087	     -4.68594452	     -6.50408546	    -12.44659727	      8.91084120	     30.98366931	     90.00000001	      0.00000000	      0.00000000	      6.81937575	    -17.77815213	     25.29171412	     31.77126103	     90.00000001	      0.00000000	      0.00000000
